HIERARCHY
ROOT Hips
{
  OFFSET -436.379 91.226 747.51
  CHANNELS 6 Xposition Yposition Zposition Zrotation Xrotation Yrotation
  JOINT Spine
  {
    OFFSET -1.89517e-05 8 0
    CHANNELS 6 Xposition Yposition Zposition Zrotation Xrotation Yrotation
    JOINT Spine1
    {
      OFFSET 8.3956e-05 7.99992 0.0350311
      CHANNELS 6 Xposition Yposition Zposition Zrotation Xrotation Yrotation
      JOINT Spine2
      {
        OFFSET -4.3464e-05 8 -3.32132e-05
        CHANNELS 6 Xposition Yposition Zposition Zrotation Xrotation Yrotation
        JOINT Spine3
        {
          OFFSET 0 8 0
          CHANNELS 6 Xposition Yposition Zposition Zrotation Xrotation Yrotation
          JOINT Neck
          {
            OFFSET -0.000138221 17 0
            CHANNELS 6 Xposition Yposition Zposition Zrotation Xrotation Yrotation
            JOINT Head
            {
              OFFSET 1.3846e-05 10.8 -5.53078e-05
              CHANNELS 6 Xposition Yposition Zposition Zrotation Xrotation Yrotation
              End Site
              {
                OFFSET 0 20.25 0
              }
            }
          }
          JOINT LeftShoulder
          {
            OFFSET 4.99989 17.0001 1.6355e-05
            CHANNELS 6 Xposition Yposition Zposition Zrotation Xrotation Yrotation
            JOINT LeftShoulder2
            {
              OFFSET 6.45 0 0
              CHANNELS 6 Xposition Yposition Zposition Zrotation Xrotation Yrotation
              JOINT LeftArm
              {
                OFFSET 6.44999 0 -3.15225e-05
                CHANNELS 6 Xposition Yposition Zposition Zrotation Xrotation Yrotation
                JOINT LeftForeArm
                {
                  OFFSET -5.40494e-05 -32.4 -2.05734
                  CHANNELS 6 Xposition Yposition Zposition Zrotation Xrotation Yrotation
                  JOINT LeftHand
                  {
                    OFFSET 8.35768e-05 -25.6526 2.00006
                    CHANNELS 6 Xposition Yposition Zposition Zrotation Xrotation Yrotation
                    JOINT LeftHandThumb1
                    {
                      OFFSET -0.500018 -1.49996 2.64988
                      CHANNELS 6 Xposition Yposition Zposition Zrotation Xrotation Yrotation
                      JOINT LeftHandThumb2
                      {
                        OFFSET -2.88819e-05 -3.79996 3.69997
                        CHANNELS 6 Xposition Yposition Zposition Zrotation Xrotation Yrotation
                        JOINT LeftHandThumb3
                        {
                          OFFSET -9.79725e-05 -2.99994 2.70006
                          CHANNELS 6 Xposition Yposition Zposition Zrotation Xrotation Yrotation
                          End Site
                          {
                            OFFSET 4.99566e-05 -2.29999 1.79998
                          }
                        }
                      }
                    }
                    JOINT LeftHandIndex
                    {
                      OFFSET -6.7871e-05 -1.90007 1.59999
                      CHANNELS 6 Xposition Yposition Zposition Zrotation Xrotation Yrotation
                      JOINT LeftHandIndex1
                      {
                        OFFSET 3.94634e-05 -8.29999 1.9
                        CHANNELS 6 Xposition Yposition Zposition Zrotation Xrotation Yrotation
                        JOINT LeftHandIndex2
                        {
                          OFFSET 0.0218945 -4.50002 -5.30446e-05
                          CHANNELS 6 Xposition Yposition Zposition Zrotation Xrotation Yrotation
                          JOINT LeftHandIndex3
                          {
                            OFFSET 1.76058e-05 -3.39998 0
                            CHANNELS 6 Xposition Yposition Zposition Zrotation Xrotation Yrotation
                            End Site
                            {
                              OFFSET -3.11262e-05 -2.60007 5.88666e-05
                            }
                          }
                        }
                      }
                    }
                    JOINT LeftHandMiddle
                    {
                      OFFSET -0.25001 -2.19997 0.400051
                      CHANNELS 6 Xposition Yposition Zposition Zrotation Xrotation Yrotation
                      JOINT LeftHandMiddle1
                      {
                        OFFSET -3.20517e-05 -8.30006 1.01595
                        CHANNELS 6 Xposition Yposition Zposition Zrotation Xrotation Yrotation
                        JOINT LeftHandMiddle2
                        {
                          OFFSET 1.63377e-05 -4.65002 -0.0106623
                          CHANNELS 6 Xposition Yposition Zposition Zrotation Xrotation Yrotation
                          JOINT LeftHandMiddle3
                          {
                            OFFSET -1.84867e-05 -3.30004 1.35739e-05
                            CHANNELS 6 Xposition Yposition Zposition Zrotation Xrotation Yrotation
                            End Site
                            {
                              OFFSET -1.89673e-05 -2.69995 2.14515e-05
                            }
                          }
                        }
                      }
                    }
                    JOINT LeftHandRing
                    {
                      OFFSET -0.50005 -2.12709 -0.800014
                      CHANNELS 6 Xposition Yposition Zposition Zrotation Xrotation Yrotation
                      JOINT LeftHandRing1
                      {
                        OFFSET 3.88912e-05 -7.73943 -0.200009
                        CHANNELS 6 Xposition Yposition Zposition Zrotation Xrotation Yrotation
                        JOINT LeftHandRing2
                        {
                          OFFSET -0.0289812 -3.78535 4.76038e-05
                          CHANNELS 6 Xposition Yposition Zposition Zrotation Xrotation Yrotation
                          JOINT LeftHandRing3
                          {
                            OFFSET 0.00373399 -3.39993 4.59505e-05
                            CHANNELS 6 Xposition Yposition Zposition Zrotation Xrotation Yrotation
                            End Site
                            {
                              OFFSET 2.6158e-05 -2.60004 -3.71277e-05
                            }
                          }
                        }
                      }
                    }
                    JOINT LeftHandPinky
                    {
                      OFFSET -0.750011 -1.74999 -1.85002
                      CHANNELS 6 Xposition Yposition Zposition Zrotation Xrotation Yrotation
                      JOINT LeftHandPinky1
                      {
                        OFFSET 4.45278e-05 -7.15005 -1.00004
                        CHANNELS 6 Xposition Yposition Zposition Zrotation Xrotation Yrotation
                        JOINT LeftHandPinky2
                        {
                          OFFSET 0.0342987 -2.99994 -4.96858e-05
                          CHANNELS 6 Xposition Yposition Zposition Zrotation Xrotation Yrotation
                          JOINT LeftHandPinky3
                          {
                            OFFSET -6.23061e-05 -2.35005 7.21974e-05
                            CHANNELS 6 Xposition Yposition Zposition Zrotation Xrotation Yrotation
                            End Site
                            {
                              OFFSET 7.49425e-05 -2.10004 0
                            }
                          }
                        }
                      }
                    }
                  }
                }
              }
            }
          }
          JOINT RightShoulder
          {
            OFFSET -5.0001 17 -2.25878e-05
            CHANNELS 6 Xposition Yposition Zposition Zrotation Xrotation Yrotation
            JOINT RightShoulder2
            {
              OFFSET -6.45 0 0
              CHANNELS 6 Xposition Yposition Zposition Zrotation Xrotation Yrotation
              JOINT RightArm
              {
                OFFSET -6.45001 8.77488e-05 0.000156649
                CHANNELS 6 Xposition Yposition Zposition Zrotation Xrotation Yrotation
                JOINT RightForeArm
                {
                  OFFSET 1.89992e-05 -32.4 -2.00004
                  CHANNELS 6 Xposition Yposition Zposition Zrotation Xrotation Yrotation
                  JOINT RightHand
                  {
                    OFFSET 0.0437695 -25.6499 2.00005
                    CHANNELS 6 Xposition Yposition Zposition Zrotation Xrotation Yrotation
                    JOINT RightHandThumb1
                    {
                      OFFSET 0.499989 -1.49999 2.65004
                      CHANNELS 6 Xposition Yposition Zposition Zrotation Xrotation Yrotation
                      JOINT RightHandThumb2
                      {
                        OFFSET 0.0320864 -3.79998 3.70005
                        CHANNELS 6 Xposition Yposition Zposition Zrotation Xrotation Yrotation
                        JOINT RightHandThumb3
                        {
                          OFFSET 0.0223302 -2.99999 2.7
                          CHANNELS 6 Xposition Yposition Zposition Zrotation Xrotation Yrotation
                          End Site
                          {
                            OFFSET -9.72879e-05 -2.30001 1.80001
                          }
                        }
                      }
                    }
                    JOINT RightHandIndex
                    {
                      OFFSET -0.00132299 -1.93269 1.60172
                      CHANNELS 6 Xposition Yposition Zposition Zrotation Xrotation Yrotation
                      JOINT RightHandIndex1
                      {
                        OFFSET 4.6827e-05 -8.30004 1.90003
                        CHANNELS 6 Xposition Yposition Zposition Zrotation Xrotation Yrotation
                        JOINT RightHandIndex2
                        {
                          OFFSET -2.54309e-05 -4.49997 0.0274858
                          CHANNELS 6 Xposition Yposition Zposition Zrotation Xrotation Yrotation
                          JOINT RightHandIndex3
                          {
                            OFFSET -2.87746e-05 -3.40005 -3.26215e-05
                            CHANNELS 6 Xposition Yposition Zposition Zrotation Xrotation Yrotation
                            End Site
                            {
                              OFFSET -2.52655e-05 -2.59997 7.03742e-05
                            }
                          }
                        }
                      }
                    }
                    JOINT RightHandMiddle
                    {
                      OFFSET 0.250069 -2.20002 0.400016
                      CHANNELS 6 Xposition Yposition Zposition Zrotation Xrotation Yrotation
                      JOINT RightHandMiddle1
                      {
                        OFFSET -3.13815e-05 -8.29999 1.00326
                        CHANNELS 6 Xposition Yposition Zposition Zrotation Xrotation Yrotation
                        JOINT RightHandMiddle2
                        {
                          OFFSET 5.99947e-05 -4.64998 -4.70226e-05
                          CHANNELS 6 Xposition Yposition Zposition Zrotation Xrotation Yrotation
                          JOINT RightHandMiddle3
                          {
                            OFFSET -3.97937e-05 -3.24812 0
                            CHANNELS 6 Xposition Yposition Zposition Zrotation Xrotation Yrotation
                            End Site
                            {
                              OFFSET -4.27204e-05 -2.69994 -2.29606e-05
                            }
                          }
                        }
                      }
                    }
                    JOINT RightHandRing
                    {
                      OFFSET 0.499917 -2.14994 -0.800018
                      CHANNELS 6 Xposition Yposition Zposition Zrotation Xrotation Yrotation
                      JOINT RightHandRing1
                      {
                        OFFSET 0 -7.74994 -0.199918
                        CHANNELS 6 Xposition Yposition Zposition Zrotation Xrotation Yrotation
                        JOINT RightHandRing2
                        {
                          OFFSET 1.8908e-05 -3.82379 -1.4623e-05
                          CHANNELS 6 Xposition Yposition Zposition Zrotation Xrotation Yrotation
                          JOINT RightHandRing3
                          {
                            OFFSET -3.77442e-05 -3.40001 -3.71719e-05
                            CHANNELS 6 Xposition Yposition Zposition Zrotation Xrotation Yrotation
                            End Site
                            {
                              OFFSET 6.7033e-05 -2.60006 7.32795e-05
                            }
                          }
                        }
                      }
                    }
                    JOINT RightHandPinky
                    {
                      OFFSET 0.749984 -1.74995 -1.83948
                      CHANNELS 6 Xposition Yposition Zposition Zrotation Xrotation Yrotation
                      JOINT RightHandPinky1
                      {
                        OFFSET 4.90519e-05 -7.15005 -0.999986
                        CHANNELS 6 Xposition Yposition Zposition Zrotation Xrotation Yrotation
                        JOINT RightHandPinky2
                        {
                          OFFSET 5.51403e-05 -3.00003 5.97954e-05
                          CHANNELS 6 Xposition Yposition Zposition Zrotation Xrotation Yrotation
                          JOINT RightHandPinky3
                          {
                            OFFSET -2.74951e-05 -2.34999 -4.4459e-05
                            CHANNELS 6 Xposition Yposition Zposition Zrotation Xrotation Yrotation
                            End Site
                            {
                              OFFSET 3.25469e-05 -2.10381 0.013298
                            }
                          }
                        }
                      }
                    }
                  }
                }
              }
            }
          }
        }
      }
    }
  }
  JOINT LeftUpLeg
  {
    OFFSET 7.99998 0 0
    CHANNELS 6 Xposition Yposition Zposition Zrotation Xrotation Yrotation
    JOINT LeftLeg
    {
      OFFSET -4.768e-05 -45 -1.00003
      CHANNELS 6 Xposition Yposition Zposition Zrotation Xrotation Yrotation
      JOINT LeftFoot
      {
        OFFSET -3.60514e-05 -41 -1.99997
        CHANNELS 6 Xposition Yposition Zposition Zrotation Xrotation Yrotation
        JOINT LeftToeBase
        {
          OFFSET -4.12075e-05 -7.5 12.4999
          CHANNELS 6 Xposition Yposition Zposition Zrotation Xrotation Yrotation
          JOINT LeftFootToe
          {
            OFFSET 0 0 4
            CHANNELS 6 Xposition Yposition Zposition Zrotation Xrotation Yrotation
            End Site
            {
              OFFSET 0 0 0
            }
          }
        }
      }
    }
  }
  JOINT RightUpLeg
  {
    OFFSET -7.99998 0 0
    CHANNELS 6 Xposition Yposition Zposition Zrotation Xrotation Yrotation
    JOINT RightLeg
    {
      OFFSET -3.21394e-05 -45 -1.00004
      CHANNELS 6 Xposition Yposition Zposition Zrotation Xrotation Yrotation
      JOINT RightFoot
      {
        OFFSET -5.242e-05 -41 -1.99992
        CHANNELS 6 Xposition Yposition Zposition Zrotation Xrotation Yrotation
        JOINT RightToeBase
        {
          OFFSET 2.95602e-05 -7.5 12.5
          CHANNELS 6 Xposition Yposition Zposition Zrotation Xrotation Yrotation
          JOINT RightFootToe
          {
            OFFSET 0 0 4
            CHANNELS 6 Xposition Yposition Zposition Zrotation Xrotation Yrotation
            End Site
            {
              OFFSET 0 0 0
            }
          }
        }
      }
    }
  }
}
MOTION
Frames:	3
Frame Time:	0.0111111
-436.65 91.6714 747.566 0.590531 5.39905 92.4761 -1.13687e-13 8 0 -10.1174 -1.89983 -7.17713 1.13687e-13 8 -5.68434e-14 0.868998 2.29485 -0.925927 -1.13687e-13 8 5.68434e-14 0.433269 1.14927 -0.455122 0 8 0 0.43058 1.14903 -0.45506 0 17 -5.68434e-14 -5.63727 13.8214 4.39991 0 10.8 0 -0.454593 26.0707 10.3968 5 17 -1.13687e-13 -7.31263 -0.40118 -5.0011 6.45 -1.42109e-14 5.68434e-14 1.07161 0.0702648 0.275985 6.45 1.42109e-14 0 4.36947 -1.83995 8.54598 -2.27374e-13 -32.4 -2 -43.6404 -40.574 9.45197 -5.68434e-14 -25.65 2 8.20555 15.9234 17.6392 -0.5 -1.5 2.65 -0.285927 7.0185 9.07958 0 -3.8 3.7 0.0085476 10.5818 -0.0315528 2.84217e-14 -3 2.7 -0.145331 62.9284 0.0431131 -5.68434e-14 -1.9 1.6 5.62649e-07 7.75417e-06 2.22489e-05 0 -8.3 1.9 -18.4373 29.0382 5.68198 -1.42109e-14 -4.5 0 -26.2841 -0.0390622 0.166511 0 -3.4 0 -19.6998 -0.057966 0.0878584 -0.25 -2.2 0.4 5.62649e-07 7.75417e-06 2.22489e-05 5.68434e-14 -8.3 1 -35.6983 22.2585 9.09467 -7.10543e-15 -4.65 1.13687e-13 -1.62478 0.0292953 0.025051 0 -3.3 0 -2.49397e-05 -0.0414501 -0.0169449 -0.5 -2.15 -0.8 5.62649e-07 7.75417e-06 2.22489e-05 -5.68434e-14 -7.75 -0.2 -48.1096 7.21244 6.04191 0 -3.8 0 -44.2254 -0.0841361 0.0430805 0 -3.4 0 -29.7695 -0.0593573 -0.00126881 -0.75 -1.75 -1.85 5.62649e-07 7.75417e-06 2.22489e-05 -5.68434e-14 -7.15 -1 -67.232 1.12017 6.58267 2.84217e-14 -3 0 0.00461295 -0.00885776 -0.00610049 0 -2.35 -1.13687e-13 0.00459842 0.0225378 -0.00601631 -5 17 -5.68434e-14 -2.25362 4.53442 -3.55756 -6.45 2.84217e-14 -5.68434e-14 -1.71082 -1.53129 -0.357905 -6.45 0 0 -39.3883 -41.939 -19.007 1.13687e-13 -32.4 -2 133.402 -34.7287 127.627 -5.68434e-14 -25.65 2 -15.9031 -8.11309 37.4392 0.5 -1.5 2.65 121.318 49.687 -165.324 0 -3.8 3.7 0.101655 23.1993 -0.0873569 0 -3 2.7 -0.177726 34.933 0.0892548 0 -1.9 1.6 -5.69863e-05 2.42883e-05 -2.68792e-05 0 -8.3 1.9 16.0657 -11.8135 1.51651 0 -4.5 -2.84217e-14 43.403 0.00592858 -0.00346441 -2.84217e-14 -3.4 -5.68434e-14 29.2872 0.00167398 -0.00254782 0.25 -2.2 0.4 -5.69863e-05 2.42883e-05 -2.68792e-05 0 -8.3 1 29.3861 -0.503969 -0.522761 0 -4.65 0 15.7734 0.0117786 -0.00465046 -2.84217e-14 -3.3 0 12.0221 0.00725578 -0.00113779 0.5 -2.15 -0.8 -5.69863e-05 2.42883e-05 -2.68792e-05 -1.13687e-13 -7.75 -0.2 50.842 -2.13318 -1.52013 -2.84217e-14 -3.8 0 0.0230279 0.0073088 -0.0164255 0 -3.4 -5.68434e-14 -2.69723e-05 0.00685199 -0.0149308 0.75 -1.75 -1.85 -5.69863e-05 2.42883e-05 -2.68792e-05 0 -7.15 -1 72.0793 -3.40287 -4.63693 -5.68434e-14 -3 0 0.151603 0.000358086 0.00830381 0 -2.35 5.68434e-14 0.151686 0.00362 0.00831207 8 2.84217e-14 5.68434e-14 -3.23334 -0.660447 29.4613 0 -45 -1 0.92735 20.937 -6.79582 0 -41 -2 0.12193 -18.7027 2.74807 -5.68434e-14 -7.5 12.5 4.27327e-06 -1.21123e-06 -9.27685e-06 0 0 4 -4.02718 3.14874 -16.5137 -8 0 -5.68434e-14 -18.8532 -12.9944 -23.3543 -1.13687e-13 -45 -1 0.473438 28.0314 8.17257 0 -41 -2 5.10731 -11.3283 16.3245 0 -7.5 12.5 -6.95205e-07 0.0595428 -3.54061e-05 -1.13687e-13 2.22045e-16 4 -5.67425 -2.64647 37.5185 
-436.643 91.6607 747.555 0.588271 5.40156 92.4522 0 8 0 -10.1147 -1.89257 -7.17571 0 8 0 0.872712 2.28852 -0.92723 1.13687e-13 8 0 0.434161 1.14613 -0.456066 -1.13687e-13 8 0 0.432416 1.14574 -0.455394 -1.13687e-13 17 0 -5.61869 13.8696 4.36482 0 10.8 0 -0.416907 26.1631 10.3099 5 17 0 -7.3122 -0.370626 -4.96839 6.45 1.42109e-14 0 1.0643 0.0872736 0.261538 6.45 -1.42109e-14 5.68434e-14 4.49294 -1.8084 8.58007 0 -32.4 -2 -43.5736 -40.2742 9.14589 0 -25.65 2 7.43634 16.1409 17.7842 -0.5 -1.5 2.65 -0.818488 7.51769 8.77666 5.68434e-14 -3.8 3.7 0.0115137 10.7445 -0.0355613 5.68434e-14 -3 2.7 -0.194753 61.161 0.0550326 -5.68434e-14 -1.9 1.6 5.62649e-07 7.75417e-06 2.22489e-05 5.68434e-14 -8.3 1.9 -20.1878 29.7624 6.36551 1.42109e-14 -4.5 5.68434e-14 -28.1229 -0.0406857 0.19306 -5.68434e-14 -3.4 -5.68434e-14 -20.8163 -0.065647 0.101991 -0.25 -2.2 0.4 5.62649e-07 7.75417e-06 2.22489e-05 0 -8.3 1 -37.0619 22.8953 9.68985 7.10543e-15 -4.65 0 -1.62519 0.0295129 0.0244509 0 -3.3 0 -2.5807e-05 -0.0413529 -0.0173562 -0.5 -2.15 -0.8 5.62649e-07 7.75417e-06 2.22489e-05 -5.68434e-14 -7.75 -0.2 -48.2366 7.81511 6.28126 5.68434e-14 -3.8 -1.13687e-13 -45.6606 -0.0885567 0.0575243 0 -3.4 0 -30.696 -0.0674529 0.00452899 -0.75 -1.75 -1.85 5.62649e-07 7.75417e-06 2.22489e-05 0 -7.15 -1 -67.6757 1.53532 6.96659 2.84217e-14 -3 1.13687e-13 -0.00127752 -0.00875753 -0.00322442 0 -2.35 0 -0.00193358 0.021577 -0.00314997 -5 17 -5.68434e-14 -2.30518 4.52407 -3.64542 -6.45 2.13163e-14 5.68434e-14 -1.68872 -1.53549 -0.318532 -6.45 -2.84217e-14 0 -39.2912 -41.951 -19.0703 0 -32.4 -2 133.377 -34.6727 127.572 0 -25.65 2 -16.1487 -8.34727 37.6299 0.5 -1.5 2.65 121.512 49.4742 -165.273 0 -3.8 3.7 0.103221 23.3469 -0.0873399 0 -3 2.7 -0.177737 34.9323 0.0895636 0 -1.9 1.6 -5.69863e-05 2.42883e-05 -2.68792e-05 -1.13687e-13 -8.3 1.9 16.6719 -11.8574 1.58219 1.13687e-13 -4.5 2.84217e-14 44.3136 0.00570547 -0.00278781 -2.84217e-14 -3.4 -2.84217e-14 29.8576 0.00169179 -0.00237323 0.25 -2.2 0.4 -5.69863e-05 2.42883e-05 -2.68792e-05 0 -8.3 1 29.5226 -0.522643 -0.498221 5.68434e-14 -4.65 5.68434e-14 16.9576 0.0169354 -0.00315541 0 -3.3 -5.68434e-14 12.8396 0.0105056 -0.00178683 0.5 -2.15 -0.8 -5.69863e-05 2.42883e-05 -2.68792e-05 0 -7.75 -0.2 50.9803 -2.14734 -1.48986 0 -3.8 0 -0.0128298 0.0073088 -0.0135382 0 -3.4 0 -0.0323274 0.00685199 -0.0121559 0.75 -1.75 -1.85 -5.69863e-05 2.42883e-05 -2.68792e-05 1.13687e-13 -7.15 -1 72.2893 -3.47804 -4.62467 0 -3 5.68434e-14 0.521025 0.00390897 0.0089431 -5.68434e-14 -2.35 5.68434e-14 0.502411 0.00625571 0.0087196 8 0 -5.68434e-14 -3.2206 -0.672546 29.4816 -5.68434e-14 -45 -1 0.926353 20.9886 -6.79826 -5.68434e-14 -41 -2 0.119036 -18.7401 2.67449 -5.68434e-14 -7.5 12.5 4.27327e-06 -1.21123e-06 -9.27685e-06 -5.68434e-14 -2.22045e-16 4 -4.01545 3.18741 -16.5135 -8 -2.84217e-14 -1.13687e-13 -18.8612 -13.0257 -23.3354 -1.13687e-13 -45 -1 0.472773 28.0973 8.17407 0 -41 -2 5.10439 -11.3551 16.3539 0 -7.5 12.5 -6.9516e-07 0.0596153 -3.54061e-05 0 0 4 -5.68511 -2.63809 37.5168 
-436.636 91.6503 747.544 0.586404 5.40454 92.4293 -1.13687e-13 8 0 -10.1097 -1.88908 -7.17305 0 8 5.68434e-14 0.876977 2.28278 -0.925414 -1.13687e-13 8 0 0.435394 1.14332 -0.456652 1.13687e-13 8 0 0.434284 1.14274 -0.455359 0 17 5.68434e-14 -5.59435 13.9201 4.32801 -1.13687e-13 10.8 0 -0.365418 26.2629 10.218 5 17 0 -7.31849 -0.339607 -4.9301 6.45 0 -5.68434e-14 1.05138 0.107377 0.246252 6.45 1.42109e-14 0 4.65913 -1.80196 8.57098 -1.13687e-13 -32.4 -2 -43.5373 -40.0124 8.76667 0 -25.65 2 7.01729 16.2706 17.7789 -0.5 -1.5 2.65 -1.63283 8.26417 8.17883 0 -3.8 3.7 0.0169841 11.0144 -0.0410234 0 -3 2.7 -0.232988 58.3933 0.033329 -5.68434e-14 -1.9 1.6 5.62649e-07 7.75417e-06 2.22489e-05 -5.68434e-14 -8.3 1.9 -22.2634 30.557 7.18217 2.84217e-14 -4.5 0 -30.6798 -0.0316984 0.19188 -5.68434e-14 -3.4 0 -22.3718 -0.0620488 0.101709 -0.25 -2.2 0.4 5.62649e-07 7.75417e-06 2.22489e-05 0 -8.3 1 -38.6969 23.6652 10.4214 1.42109e-14 -4.65 -1.13687e-13 -1.62559 0.0297028 0.0238272 -1.42109e-14 -3.3 0 -2.67725e-05 -0.0412269 -0.0177445 -0.5 -2.15 -0.8 5.62649e-07 7.75417e-06 2.22489e-05 -5.68434e-14 -7.75 -0.2 -48.3508 8.53155 6.55513 2.84217e-14 -3.8 0 -47.3953 -0.0859749 0.0729061 5.68434e-14 -3.4 0 -31.8268 -0.0727555 0.0123012 -0.75 -1.75 -1.85 5.62649e-07 7.75417e-06 2.22489e-05 -5.68434e-14 -7.15 -1 -68.178 2.01547 7.41238 5.68434e-14 -3 0 -0.00231483 -0.00864406 -0.000185741 0 -2.35 0 -0.00442865 0.0205985 -0.000135699 -5 17 -5.68434e-14 -2.37669 4.50777 -3.75143 -6.45 2.84217e-14 -5.68434e-14 -1.66062 -1.5397 -0.270413 -6.45 -1.42109e-14 -5.68434e-14 -39.1894 -41.9653 -19.1365 0 -32.4 -2 133.339 -34.5946 127.492 0 -25.65 2 -16.3858 -8.56656 37.8323 0.5 -1.5 2.65 121.667 49.2571 -165.221 0 -3.8 3.7 0.105489 23.4868 -0.0872724 1.13687e-13 -3 2.7 -0.177705 34.9316 0.0898584 0 -1.9 1.6 -5.69863e-05 2.42883e-05 -2.68792e-05 0 -8.3 1.9 17.2703 -11.9581 1.65459 0 -4.5 -5.68434e-14 45.2878 0.00547453 -0.00210858 -5.68434e-14 -3.4 -8.52651e-14 30.4732 0.00183446 -0.0021663 0.25 -2.2 0.4 -5.69863e-05 2.42883e-05 -2.68792e-05 0 -8.3 1 29.5756 -0.650035 -0.450077 5.68434e-14 -4.65 0 18.345 0.0239432 -0.000839676 0 -3.3 0 13.7895 0.0152894 -0.00277487 0.5 -2.15 -0.8 -5.69863e-05 2.42883e-05 -2.68792e-05 1.13687e-13 -7.75 -0.2 51.0635 -2.20643 -1.44375 2.84217e-14 -3.8 0 -0.0854307 0.0073088 -0.0106159 -5.68434e-14 -3.4 1.13687e-13 -0.0977265 0.00685199 -0.00938345 0.75 -1.75 -1.85 -5.69863e-05 2.42883e-05 -2.68792e-05 0 -7.15 -1 72.3354 -3.60448 -4.54101 5.68434e-14 -3 0 1.0659 0.00966652 0.00960956 -5.68434e-14 -2.35 0 1.01922 0.0103915 0.00911727 8 0 0 -3.20917 -0.682722 29.4997 0 -45 -1 0.924918 21.0368 -6.80052 0 -41 -2 0.116644 -18.7759 2.602 0 -7.5 12.5 4.27327e-06 -1.21123e-06 -9.27685e-06 0 2.22045e-16 4 -4.00498 3.22067 -16.5133 -8 0 0 -18.8675 -13.0553 -23.313 0 -45 -1 0.471996 28.1608 8.17584 -1.13687e-13 -41 -2 5.10188 -11.3818 16.3802 0 -7.5 12.5 -6.95117e-07 0.0596848 -3.54061e-05 0 -4.44089e-16 4 -5.69655 -2.62734 37.5265 
